<?xml version="1.0" encoding="iso-8859-1"?>
<!-- Generator: Adobe Illustrator 19.0.0, SVG Export Plug-In . SVG Version: 6.00 Build 0)  -->
<svg version="1.1" id="Layer_1" xmlns="http://www.w3.org/2000/svg" xmlns:xlink="http://www.w3.org/1999/xlink" x="0px" y="0px"
	 viewBox="0 0 511.999 511.999" style="enable-background:new 0 0 511.999 511.999;" xml:space="preserve">
<path style="fill:#DDB201;" d="M381.335,139.851c0.227-9.576-6.063-19.119-18.392-26.238c-1.744-1.007-3.605-1.963-5.589-2.867
	l-1.321-0.603c-29.321-13.358-91.111-5.814-90.776,24.729c0.364,33.101,0.469,72.596,0.469,72.596l-0.052,18.336l24.79,11.293
	l75.367-55.522c0.375-0.262,0.761-0.519,1.126-0.793c0.347-0.257,0.67-0.517,1.003-0.776c8.96-6.602,13.315-14.453,13.337-22.259
	l0.052-18.336C381.352,139.557,381.339,139.704,381.335,139.851z M277.88,148.448c1.415-1.978,3.305-3.88,5.699-5.645
	c14.166-10.456,40.324-12.247,58.417-4.005c1.316,0.6,2.554,1.236,3.71,1.904c4.032,2.328,7.095,5.045,9.149,7.963
	c-1.416,1.979-3.308,3.881-5.703,5.647c-14.17,10.453-40.324,12.247-58.417,4.005c-1.318-0.6-2.559-1.238-3.718-1.907
	C282.988,154.083,279.934,151.366,277.88,148.448z"/>
<path style="fill:#CBA400;" d="M498.058,199.087l-1.045-0.763c-1.564-1.145-3.225-2.221-4.967-3.228
	c-22.193-12.813-57.88-14.287-82.981-2.781c-0.443,0.196-0.895,0.381-1.337,0.583c-0.466,0.215-0.908,0.44-1.36,0.658
	l-95.612,43.834l-0.052,18.336l19.577,14.323c0,0,127.677,11.317,153.105,1.464c18.722-7.255,28.529-18.989,28.563-30.873
	l0.052-18.336c0,0.008-0.001,0.016-0.001,0.024C512.031,214.188,507.477,205.977,498.058,199.087z M418.409,239.214
	c-1.16-0.67-2.263-1.386-3.305-2.147c-2.504-1.832-4.464-3.809-5.917-5.866c2.615-3.67,6.834-7.012,12.589-9.648
	c16.69-7.642,40.41-6.656,55.167,1.864c1.158,0.669,2.26,1.382,3.3,2.143c2.5,1.83,4.462,3.803,5.914,5.859
	c-2.615,3.671-6.832,7.016-12.591,9.652C456.879,248.713,433.16,247.73,418.409,239.214z"/>
<g style="enable-background:new    ;">
	<polygon style="fill:#DDB201;" points="290.519,218.762 290.466,237.098 265.676,225.805 265.727,207.469 	"/>
	<path style="fill:#CBA400;" d="M368.014,161.67c-0.332,0.259-0.656,0.519-1.003,0.776c-0.366,0.274-0.751,0.531-1.126,0.793
		l-75.367,55.522l-0.052,18.336l75.367-55.522c0.375-0.262,0.761-0.519,1.126-0.793c0.347-0.257,0.67-0.517,1.003-0.776
		c8.96-6.602,13.315-14.453,13.337-22.259l0.052-18.336C381.33,147.216,376.975,155.068,368.014,161.67z"/>
	<g>
		<path style="fill:#FECE00;" d="M381.352,139.412v-0.002c0,0.046-0.003,0.093-0.005,0.14
			C381.346,139.504,381.352,139.458,381.352,139.412z"/>
		<path style="fill:#FECE00;" d="M365.886,163.239c0.375-0.262,0.761-0.519,1.126-0.793c0.347-0.257,0.67-0.517,1.003-0.776
			c8.792-6.478,13.14-14.161,13.32-21.822c0.226-9.576-6.065-19.118-18.393-26.235c-1.744-1.007-3.605-1.963-5.589-2.867
			l-1.32-0.603c-29.321-13.358-91.111-5.814-90.776,24.729c0.363,33.101,0.469,72.596,0.469,72.596l24.79,11.293L365.886,163.239z
			 M287.018,156.41c-14.752-8.517-16.525-22.251-3.387-31.944c14.166-10.456,40.324-12.247,58.417-4.005
			c1.316,0.6,2.554,1.236,3.71,1.904c14.755,8.518,16.535,22.253,3.394,31.947c-14.17,10.453-40.324,12.247-58.417,4.005
			C289.418,157.718,288.177,157.079,287.018,156.41z"/>
	</g>
</g>
<g style="enable-background:new    ;">
	<polygon style="fill:#DDB201;" points="330.332,251.714 330.28,270.05 310.702,255.727 310.754,237.391 	"/>
	<path style="fill:#FECE00;" d="M498.058,199.087c23.157,16.94,16.913,41.872-14.621,54.091
		c-25.428,9.854-153.105-1.464-153.105-1.464l-19.577-14.323l95.612-43.834c0.452-0.218,0.894-0.442,1.36-0.658
		c0.443-0.202,0.895-0.387,1.337-0.583c25.101-11.507,60.788-10.033,82.981,2.781c1.743,1.006,3.403,2.083,4.967,3.228
		L498.058,199.087z M473.567,241.071c18.005-8.239,21.012-23.397,6.728-33.848c-1.04-0.761-2.142-1.475-3.3-2.143
		c-14.757-8.52-38.477-9.507-55.167-1.864c-18.001,8.242-21.012,23.397-6.724,33.85c1.041,0.762,2.145,1.478,3.305,2.147
		C433.16,247.73,456.879,248.713,473.567,241.071"/>
</g>
<path style="fill:#898890;" d="M288.683,224.277l-18.103-8.247L55.18,405.136c2.917-0.9,2.917-0.9,0,0l-0.008,3.056
	c46.673-14.389,87.631-34.259,120.272-58.343l101.08-79.506l0.008-3.056l-1.923-27.611l14.065-12.344L288.683,224.277z"/>
<path style="fill:#ACABB1;" d="M288.683,224.277l-14.273,12.526l2.123,30.484l-101.08,79.506
	c-32.642,24.082-73.6,43.953-120.272,58.343l215.401-189.106L288.683,224.277z"/>
<path style="fill:#D8D8DA;" d="M311.483,245.739l-21.584,8.306l-52.634-1.131l-136.927,58.81
	C58.868,330.71,24.703,354.503,0.008,381.58L0,384.637l325.767-125.386l0.008-3.056L311.483,245.739z"/>
<g style="enable-background:new    ;">
	<polygon style="fill:#C6C5CB;" points="325.776,256.195 325.767,259.252 0,384.637 0.008,381.581 	"/>
</g>
<path style="fill:#898890;" d="M251.282,263.835c0.059-1.414-0.844-2.839-2.713-3.917c-3.607-2.083-9.436-2.083-13.02,0
	c-1.786,1.038-2.676,2.397-2.675,3.757c0-0.004,0-0.008,0-0.013l-0.055,2.68c-0.004,1.373,0.903,2.749,2.718,3.797
	c3.607,2.083,9.437,2.083,13.02,0c1.781-1.034,2.672-2.389,2.675-3.745C251.232,266.394,251.283,263.794,251.282,263.835z"/>
<path style="fill:#ACABB1;" d="M248.57,259.916c3.607,2.083,3.626,5.459,0.043,7.541c-3.583,2.082-9.413,2.082-13.02,0
	c-3.607-2.083-3.626-5.459-0.043-7.541C239.133,257.834,244.963,257.835,248.57,259.916z"/>
<g>
</g>
<g>
</g>
<g>
</g>
<g>
</g>
<g>
</g>
<g>
</g>
<g>
</g>
<g>
</g>
<g>
</g>
<g>
</g>
<g>
</g>
<g>
</g>
<g>
</g>
<g>
</g>
<g>
</g>
</svg>
